<svg width="88" height="75" viewBox="0 0 88 75" fill="none" xmlns="http://www.w3.org/2000/svg">
<circle cx="50.5" cy="37.5" r="37.5" fill="#191E1D"/>
<path d="M62.9259 34.9364C62.9259 35.5264 62.4479 36.0044 61.8579 36.0044C61.2682 36.0044 60.7897 35.5264 60.7897 34.9364C60.7897 34.3464 61.2682 33.8684 61.8579 33.8684C62.4479 33.8684 62.9259 34.3464 62.9259 34.9364Z" fill="white"/>
<path d="M62.3599 43.3998C61.9325 43.3658 61.5134 43.382 61.1065 43.4411L60.9906 44.9006C61.3928 44.8096 61.8151 44.7755 62.2481 44.81C64.1243 44.9589 65.6144 46.3166 66.0166 48.0579C66.1513 49.1291 67.4484 48.4905 67.0668 47.4578C66.3835 45.3632 64.6931 43.5848 62.3599 43.3998Z" fill="#2C8A5D"/>
<path d="M59.7693 35.6114L58.3345 36.0044L59.5166 43.1293L56.0417 47.9954C56.0417 47.9954 52.9431 47.9954 52.1349 47.9954C51.3264 47.9954 50.479 45.3137 50.2989 42.9445C50.2066 41.7337 51.6633 40.991 51.6633 40.991L43.0407 39.9804C43.0407 39.9804 39.9075 41.9339 39.9075 47.5923C39.9075 49.0728 39.9075 50.647 39.9075 50.647H60.6902L64.5325 45.285C64.5325 45.285 63.2988 41.6866 62.9259 40.7884C62.5531 39.8902 61.4995 40.0883 61.4995 40.0883L59.7693 35.6114Z" fill="#2C8A5D"/>
<path d="M39.8682 48.5691C40.614 48.5691 43.8381 48.5691 43.8381 48.5691V50.7817C43.8381 50.7817 40.6318 50.7817 39.8682 50.7817C39.1047 50.7817 39.1224 48.5691 39.8682 48.5691Z" fill="white"/>
<path d="M45.2222 37.9894C45.2222 38.3586 44.923 38.6578 44.554 38.6578H37.6684C37.2992 38.6578 37 38.3586 37 37.9894V30.9015C37 30.5323 37.2992 30.2331 37.6684 30.2331H44.554C44.923 30.2331 45.2222 30.5323 45.2222 30.9015V37.9894Z" fill="#2C8A5D"/>
<path d="M39.977 30.2331V33.1437L40.156 32.8672L40.3466 33.1615L40.5369 32.8672L40.7274 33.1615L40.9179 32.8672L41.1082 33.1615L41.2987 32.8672L41.489 33.1615L41.6796 32.8672L41.8701 33.1615L42.0604 32.8672L42.2453 33.1527V32.7432V32.4856V30.2331H39.977Z" fill="white"/>
<path d="M49.7277 48.9355C49.7396 51.3261 47.811 53.2737 45.4204 53.2856C43.0299 53.2976 41.0823 51.369 41.0706 48.9783C41.0587 46.5875 42.9871 44.6402 45.3779 44.6286C47.7687 44.6166 49.7161 46.5451 49.7277 48.9355Z" fill="white"/>
<path d="M47.9746 48.9445C47.9815 50.3665 46.8342 51.5257 45.4121 51.5328C43.9896 51.5392 42.831 50.3924 42.8241 48.9694C42.817 47.5474 43.9641 46.3888 45.3865 46.3817C46.8088 46.3745 47.9678 47.5221 47.9746 48.9445Z" fill="#2C8A5D"/>
<path d="M66.5685 48.9355C66.5803 51.3261 64.6518 53.2737 62.261 53.2856C59.8704 53.2976 57.9231 51.369 57.9111 48.9783C57.8995 46.5875 59.8278 44.6402 62.2186 44.6286C64.6092 44.6166 66.5567 46.5451 66.5685 48.9355Z" fill="white"/>
<path d="M64.8152 48.9445C64.8221 50.3665 63.6749 51.5257 62.2526 51.5328C60.83 51.5392 59.6717 50.3924 59.6646 48.9693C59.6575 47.5474 60.805 46.3888 62.2272 46.3817C63.6494 46.3744 64.8084 47.5221 64.8152 48.9445Z" fill="#2C8A5D"/>
<path d="M51.6633 40.991C50.518 40.991 43.1545 40.991 42.0873 40.991C41.0199 40.991 40.1231 38.6334 42.0873 38.6334C44.0514 38.6334 50.3834 39.4416 51.6633 39.4416C52.9431 39.4416 52.8084 40.991 51.6633 40.991Z" fill="white"/>
<path d="M61.0748 37.0122C61.181 37.4076 60.947 37.814 60.5518 37.9205L58.99 38.3406C58.5949 38.4469 58.1882 38.2126 58.082 37.8174L57.3404 35.0608C57.2339 34.6657 57.4682 34.259 57.8633 34.1528L59.4252 33.7327C59.8203 33.6264 60.2267 33.8607 60.3332 34.2556L61.0748 37.0122Z" fill="#2C8A5D"/>
<path d="M59.3783 35.0225C59.4759 35.3913 59.3119 35.7547 59.011 35.8346L57.0024 36.3682C56.702 36.4481 56.3788 36.2141 56.281 35.8455C56.1829 35.4771 56.3471 35.1135 56.6476 35.0338L58.6566 34.4997C58.9573 34.4201 59.2802 34.6541 59.3783 35.0225Z" fill="white"/>
<path d="M62.3182 36.8139C61.3476 37.0507 60.3689 36.4558 60.1323 35.4855C59.8957 34.5149 60.4904 33.5365 61.4609 33.2996L62.3182 36.8139Z" fill="#2C8A5D"/>
<path d="M45.039 42.0234C45.039 42.1847 44.9084 42.3156 44.7471 42.3156H42.8611C42.6998 42.3156 42.5692 42.1847 42.5692 42.0234C42.5692 41.8624 42.6998 41.7316 42.8611 41.7316H44.7471C44.9084 41.7316 45.039 41.8624 45.039 42.0234Z" fill="white"/>
<path d="M45.039 43.1291C45.039 43.2906 44.9084 43.4212 44.7471 43.4212H42.8611C42.6998 43.4212 42.5692 43.2906 42.5692 43.1291C42.5692 42.9681 42.6998 42.8372 42.8611 42.8372H44.7471C44.9084 42.8372 45.039 42.9681 45.039 43.1291Z" fill="white"/>
<path d="M47.1975 30.0282C45.6375 32.2789 45.9146 36.1901 46.8248 38.6252C47.7349 41.0602 51.7595 40.0532 51.4185 38.256C50.8555 35.2842 51.5376 32.6531 51.5847 31.0983C51.6485 28.9929 48.7578 27.7776 47.1975 30.0282Z" fill="white"/>
<path d="M53.7492 26.1719C53.7492 27.6356 52.5621 28.8227 51.0982 28.8227C49.6343 28.8227 48.4475 27.6356 48.4475 26.1719C48.4475 24.7077 49.6343 23.5211 51.0982 23.5211C52.5621 23.5211 53.7492 24.7077 53.7492 26.1719Z" fill="white"/>
<path d="M53.181 29.3056L48.0078 26.9666C48.0078 26.9666 48.1785 26.3205 48.1791 26.0241C48.181 25.1187 48.6361 23.5303 49.9892 23.1544C52.1771 22.5462 53.7492 23.8787 54.0948 24.648C54.3623 25.242 54.3548 26.6417 54.3548 26.6417L52.3721 25.699L51.7871 27.3891L53.4446 28.6569L53.181 29.3056Z" fill="#2C8A5D"/>
<path d="M53.4447 28.657L51.7871 27.3892L52.3722 25.699L54.3548 26.6418L53.4447 28.657Z" fill="white"/>
<path d="M56.5974 38.4456L49.5118 36.5961L48.4475 40.0005L55.6552 40.9111L56.5974 38.4456Z" fill="white"/>
<path d="M54.0625 39.8386C54.0625 39.8386 52.7623 43.9825 50.815 46.0553C49.7843 47.1525 51.5858 48.5173 52.5225 47.7046C53.6476 46.7284 56.297 42.4961 56.8576 41.1386C57.4755 39.6435 57.2095 38.6053 56.5974 38.4456C55.9852 38.2856 54.0625 39.8386 54.0625 39.8386Z" fill="white"/>
<path d="M50.7202 30.9219C50.8268 32.7692 51.7695 33.9391 56.8818 34.2721C58.3841 34.37 57.6209 36.6867 56.3844 36.5935C50.0794 36.1171 48.43 32.9966 48.43 31.0139C48.43 29.3962 50.6136 29.075 50.7202 30.9219Z" fill="white"/>
<rect x="21" y="48" width="13" height="2" rx="1" fill="white" fill-opacity="0.6"/>
<rect x="15" y="44" width="8" height="2" rx="1" fill="white" fill-opacity="0.4"/>
<rect x="7" y="50" width="5" height="2" rx="1" fill="white" fill-opacity="0.3"/>
<rect y="45" width="3" height="2" rx="1" fill="white" fill-opacity="0.2"/>
</svg>
